<?xml version="1.0" encoding="UTF-8"?>
<svg xmlns="http://www.w3.org/2000/svg" viewBox="0 0 130 140" width="130" height="140">
  <defs>
    <linearGradient id="bar1g" x1="0" y1="1" x2="0" y2="0">
      <stop offset="0%" stop-color="#fb923c" stop-opacity="0.5"/><stop offset="100%" stop-color="#fdba74"/>
    </linearGradient>
    <linearGradient id="bar2g" x1="0" y1="1" x2="0" y2="0">
      <stop offset="0%" stop-color="#f97316" stop-opacity="0.5"/><stop offset="100%" stop-color="#fb923c"/>
    </linearGradient>
    <linearGradient id="bar3g" x1="0" y1="1" x2="0" y2="0">
      <stop offset="0%" stop-color="#ea580c" stop-opacity="0.5"/><stop offset="100%" stop-color="#f97316"/>
    </linearGradient>
    <linearGradient id="lineGrad" x1="0" y1="0" x2="1" y2="0">
      <stop offset="0%" stop-color="#fb923c"/><stop offset="100%" stop-color="#fef08a"/>
    </linearGradient>
    <filter id="glow1"><feGaussianBlur stdDeviation="2.5" result="b"/><feMerge><feMergeNode in="b"/><feMergeNode in="SourceGraphic"/></feMerge></filter>
    <filter id="glow2"><feGaussianBlur stdDeviation="4" result="b"/><feMerge><feMergeNode in="b"/><feMergeNode in="SourceGraphic"/></feMerge></filter>
  </defs>
  <line x1="22" y1="100" x2="116" y2="100" stroke="#f97316" stroke-width="0.4" stroke-opacity="0.2"/>
  <line x1="22" y1="82"  x2="116" y2="82"  stroke="#f97316" stroke-width="0.4" stroke-opacity="0.2"/>
  <line x1="22" y1="64"  x2="116" y2="64"  stroke="#f97316" stroke-width="0.4" stroke-opacity="0.2"/>
  <line x1="22" y1="46"  x2="116" y2="46"  stroke="#f97316" stroke-width="0.4" stroke-opacity="0.2"/>
  <rect x="28" y="84" width="16" height="16" rx="3" fill="url(#bar1g)" filter="url(#glow1)"/>
  <rect x="51" y="66" width="16" height="34" rx="3" fill="url(#bar2g)" filter="url(#glow1)"/>
  <rect x="74" y="46" width="16" height="54" rx="3" fill="url(#bar3g)" filter="url(#glow2)"/>
  <polyline points="36,82 59,64 82,42" fill="none" stroke="url(#lineGrad)" stroke-width="2.2" stroke-linecap="round" stroke-linejoin="round" filter="url(#glow1)"/>
  <polygon points="82,42 75,46 79,52" fill="#fef08a" filter="url(#glow2)"/>
  <circle cx="36" cy="82" r="3" fill="#fdba74" filter="url(#glow1)"/>
  <circle cx="59" cy="64" r="3" fill="#fb923c" filter="url(#glow1)"/>
  <circle cx="82" cy="42" r="3.5" fill="#fef08a" filter="url(#glow2)"/>
  <line x1="22" y1="20" x2="22" y2="100" stroke="#f97316" stroke-width="1.4" stroke-linecap="round" stroke-opacity="0.7"/>
  <line x1="22" y1="100" x2="118" y2="100" stroke="#f97316" stroke-width="1.4" stroke-linecap="round" stroke-opacity="0.7"/>
</svg>
