<?xml version="1.0" encoding="UTF-8"?>
<svg xmlns="http://www.w3.org/2000/svg" viewBox="0 0 130 140" width="130" height="140">
  <defs>
    <radialGradient id="cellBodyL" cx="35%" cy="35%" r="65%">
      <stop offset="0%" stop-color="#6ee7b7"/><stop offset="100%" stop-color="#064e3b" stop-opacity="0.6"/>
    </radialGradient>
    <radialGradient id="cellBodyR" cx="65%" cy="35%" r="65%">
      <stop offset="0%" stop-color="#6ee7b7"/><stop offset="100%" stop-color="#064e3b" stop-opacity="0.6"/>
    </radialGradient>
    <radialGradient id="nucGrad" cx="40%" cy="40%" r="60%">
      <stop offset="0%" stop-color="#a7f3d0"/><stop offset="100%" stop-color="#059669"/>
    </radialGradient>
    <filter id="glow1"><feGaussianBlur stdDeviation="2.5" result="b"/><feMerge><feMergeNode in="b"/><feMergeNode in="SourceGraphic"/></feMerge></filter>
    <filter id="glow2"><feGaussianBlur stdDeviation="4" result="b"/><feMerge><feMergeNode in="b"/><feMergeNode in="SourceGraphic"/></feMerge></filter>
    <clipPath id="lcell"><rect x="0" y="0" width="65" height="140"/></clipPath>
    <clipPath id="rcell"><rect x="65" y="0" width="65" height="140"/></clipPath>
  </defs>
  <g clip-path="url(#lcell)" filter="url(#glow2)">
    <ellipse cx="48" cy="70" rx="28" ry="32" fill="url(#cellBodyL)" stroke="#34d399" stroke-width="1.8"/>
  </g>
  <ellipse cx="48" cy="70" rx="10" ry="11" fill="url(#nucGrad)" clip-path="url(#lcell)" filter="url(#glow1)"/>
  <g clip-path="url(#lcell)" stroke="#d1fae5" stroke-width="1.3" stroke-linecap="round" filter="url(#glow1)">
    <line x1="44" y1="65" x2="52" y2="75"/><line x1="52" y1="65" x2="44" y2="75"/>
  </g>
  <g clip-path="url(#rcell)" filter="url(#glow2)">
    <ellipse cx="82" cy="70" rx="28" ry="32" fill="url(#cellBodyR)" stroke="#34d399" stroke-width="1.8"/>
  </g>
  <ellipse cx="82" cy="70" rx="10" ry="11" fill="url(#nucGrad)" clip-path="url(#rcell)" filter="url(#glow1)"/>
  <g clip-path="url(#rcell)" stroke="#d1fae5" stroke-width="1.3" stroke-linecap="round" filter="url(#glow1)">
    <line x1="78" y1="65" x2="86" y2="75"/><line x1="86" y1="65" x2="78" y2="75"/>
  </g>
  <path d="M65,38 C58,50 58,62 65,70 C58,78 58,90 65,102" fill="none" stroke="#34d399" stroke-width="1.6" stroke-linecap="round" filter="url(#glow1)" opacity="0.9"/>
  <path d="M65,38 C72,50 72,62 65,70 C72,78 72,90 65,102" fill="none" stroke="#34d399" stroke-width="1.6" stroke-linecap="round" filter="url(#glow1)" opacity="0.9"/>
  <polygon points="22,70 30,63 30,77" fill="#6ee7b7" filter="url(#glow1)"/>
  <polygon points="108,70 100,63 100,77" fill="#6ee7b7" filter="url(#glow1)"/>
</svg>
