<?xml version="1.0" encoding="UTF-8"?>
<svg xmlns="http://www.w3.org/2000/svg" viewBox="0 0 130 140" width="130" height="140">
  <defs>
    <linearGradient id="liquidGrad" x1="0" y1="0" x2="0" y2="1">
      <stop offset="0%" stop-color="#818cf8" stop-opacity="0.3"/><stop offset="100%" stop-color="#6366f1" stop-opacity="0.9"/>
    </linearGradient>
    <filter id="glow1"><feGaussianBlur stdDeviation="2.5" result="b"/><feMerge><feMergeNode in="b"/><feMergeNode in="SourceGraphic"/></feMerge></filter>
  </defs>
  <rect x="51" y="18" width="8" height="24" rx="3" fill="#1a1a2e" stroke="#818cf8" stroke-width="1.8"/>
  <rect x="48" y="14" width="14" height="6" rx="2" fill="#818cf8" fill-opacity="0.4" stroke="#818cf8" stroke-width="1.2"/>
  <path d="M53,42 L25,100 Q23,108 29,108 L81,108 Q87,108 85,100 L57,42 Z"
        fill="#1a1a2e" stroke="#818cf8" stroke-width="1.8" stroke-linejoin="round"/>
  <path d="M27,88 L25,100 Q23,108 29,108 L81,108 Q87,108 85,100 L83,88 Z"
        fill="url(#liquidGrad)" filter="url(#glow1)"/>
  <circle cx="37" cy="98" r="3" fill="#a5b4fc" fill-opacity="0.7" filter="url(#glow1)"/>
  <circle cx="49" cy="104" r="2" fill="#c7d2fe" fill-opacity="0.6" filter="url(#glow1)"/>
  <circle cx="66" cy="96" r="2.5" fill="#a5b4fc" fill-opacity="0.5" filter="url(#glow1)"/>
  <circle cx="77" cy="103" r="1.5" fill="#e0e7ff" fill-opacity="0.5" filter="url(#glow1)"/>
  <text x="55" y="84" font-family="Georgia, serif" font-size="20" font-weight="bold" fill="#818cf8" text-anchor="middle" filter="url(#glow1)" opacity="0.9">pH</text>
</svg>
